PathFileType	4	(X/Y/Z)	Run_300 02
DataRate	CameraRate	NumFrames	NumMarkers	Units	OrigDataRate	OrigDataStartFrame	OrigNumFrames
120	120	5	42	mm	120	94	128
Frame#	Time	LASI			RASI			LPSI			RPSI			RTH1			RTH2			RTH3			LTH1			LTH2			LTH3			RTB1			RTB2			LTB1			LTB2			LTB3			RCAL			RTOE			RMT5			LCAL			LTOE			LMT5			LACR			RACR			CLAV			C7			RUA1			RUA2			RUA3			RLEL			RMEL			LUA1			LUA2			LUA3			LLEL			LMEL			RFAsuperior			RFAradius			RFAulna			LFAsuperior			LFAradius			LFAulna			RTB3			
		X1	Y1	Z1	X2	Y2	Z2	X3	Y3	Z3	X4	Y4	Z4	X5	Y5	Z5	X6	Y6	Z6	X7	Y7	Z7	X8	Y8	Z8	X9	Y9	Z9	X10	Y10	Z10	X11	Y11	Z11	X12	Y12	Z12	X13	Y13	Z13	X14	Y14	Z14	X15	Y15	Z15	X16	Y16	Z16	X17	Y17	Z17	X18	Y18	Z18	X19	Y19	Z19	X20	Y20	Z20	X21	Y21	Z21	X22	Y22	Z22	X23	Y23	Z23	X24	Y24	Z24	X25	Y25	Z25	X26	Y26	Z26	X27	Y27	Z27	X28	Y28	Z28	X29	Y29	Z29	X30	Y30	Z30	X31	Y31	Z31	X32	Y32	Z32	X33	Y33	Z33	X34	Y34	Z34	X35	Y35	Z35	X36	Y36	Z36	X37	Y37	Z37	X38	Y38	Z38	X39	Y39	Z39	X40	Y40	Z40	X41	Y41	Z41	X42	Y42	Z42	

68	1.691667	865.217165	1036.982769	-463.658981	879.756846	1022.358069	-202.998245	692.364144	1073.150464	-356.595082	695.119968	1060.059472	-276.708072	855.665351	851.064526	-161.538466	954.213712	774.726962	-174.861598	928.071036	651.123	-198.850388	805.2924860000001	827.210859	-509.823586	870.9476540000001	705.852413	-495.815454	813.094631	591.002299	-466.209539	928.647551	437.899963	-283.091392	863.092923	429.806422	-210.125408	821.413742	359.596795	-381.218424	751.10787	291.742183	-424.628724	704.658727	197.455538	-347.850516	582.128191	414.489976	-270.387558	666.2940180000001	196.673008	-278.602467	617.189061	248.2476	-188.05079	529.3822699999999	114.14651	-321.761717	760.129217	68.610927	-314.070845	682.028268	53.917202	-402.023916	922.7646999999999	1477.44789	-508.278059	889.219911	1502.534891	-160.872489	943.9624669999999	1436.23752	-295.253026	828.813434	1534.533023	-340.897189	835.500847	1408.370206	-82.100317	800.1702330000001	1324.259292	-87.583209	728.732112	1348.738857	-63.312578	660.583311	1231.484699	-13.49352	625.321449	1230.336583	-89.904966	909.9550400000001	1383.769614	-579.438748	915.63017	1312.415543	-572.980248	819.465513	1300.987265	-589.377899	826.934276	1148.028091	-659.25341	775.165693	1127.393878	-590.4760680000001	745.226058	1160.128879	-21.764197	866.9975020000001	1068.162005	-118.814022	837.716109	1031.651181	-63.491565	920.194045	1151.134348	-621.942219	1041.878002	1174.904218	-492.867658	1056.867999	1110.559777	-522.573822	801.8757440000001	349.306298	-277.134189	
69	1.7	865.313013	1038.056652	-463.648352	880.294563	1025.815528	-203.277595	692.715455	1075.833641	-356.551585	695.705101	1063.530901	-276.443223	858.721105	856.46176	-160.809755	959.266946	783.202396	-174.552916	936.983732	659.012761	-198.102195	799.422854	828.510067	-509.188326	860.061946	704.854031	-495.034697	797.536326	591.8824059999999	-465.130187	946.024614	442.412523	-284.007373	880.997385	430.671093	-210.445757	800.138041	359.765094	-381.726355	728.906929	293.051633	-424.34971	681.597019	198.940092	-347.822857	600.984698	396.900606	-271.612805	701.137921	185.943861	-280.132664	648.223913	233.698513	-189.296804	505.498527	117.808078	-322.352812	735.247572	68.27360299999999	-314.176982	657.028124	54.082894	-401.856687	926.837439	1482.931636	-506.544755	885.428401	1505.701588	-159.971126	944.0149719999999	1440.172835	-293.163442	829.295107	1537.720624	-341.185913	828.686946	1414.271811	-81.498068	791.9938969999999	1331.097149	-86.45923000000001	720.696821	1357.989703	-63.572308	648.981931	1242.594012	-14.096738	613.446605	1242.006072	-90.54582600000001	915.10051	1389.1591	-577.870585	920.9320719999999	1317.77539	-571.168648	825.07172	1306.679152	-589.698754	833.190343	1152.256383	-657.073165	781.466606	1131.850225	-588.108741	732.5417210000001	1170.341724	-22.288735	852.311781	1076.176917	-119.36907	822.490468	1040.320641	-63.703928	926.126272	1158.430869	-619.369848	1045.633553	1186.004953	-489.21256	1063.168954	1122.347084	-518.9027	819.748558	350.234622	-277.383542	
70	1.708333	865.889225	1039.699461	-463.794044	881.09869	1029.926878	-203.521348	693.529419	1079.059877	-356.647253	696.6002109999999	1067.66735	-276.158489	861.92952	862.440319	-159.883157	964.025782	791.885004	-174.109733	945.241443	667.169637	-197.171855	793.727902	830.293659	-508.40593	849.024418	704.6047150000001	-493.962479	781.764916	593.784435	-463.671228	962.697514	447.096036	-284.846622	898.416745	431.075032	-210.947517	778.73274	360.939393	-382.042399	706.595234	295.378512	-423.970126	658.643282	201.252124	-347.7672	620.907285	378.390245	-273.427488	736.686147	175.663162	-281.908568	680.136626	219.287109	-191.099998	482.035689	122.538896	-323.04926	710.541872	68.023573	-314.248635	632.18541	54.435059	-401.639449	930.677008	1488.848317	-504.711822	881.446059	1509.623774	-159.417932	943.990406	1444.995418	-290.967917	829.822976	1541.413366	-341.605995	822.2160710000001	1421.300901	-81.20754700000001	784.476736	1338.766231	-85.66931599999999	713.588556	1367.817172	-63.623584	637.946154	1254.521163	-15.294796	603.339461	1254.610298	-92.17885200000001	919.70546	1395.122781	-576.307815	925.874336	1323.807697	-569.417767	830.530248	1312.627384	-589.257989	839.166186	1157.171281	-655.069443	787.219171	1137.162585	-585.944429	720.5004740000001	1181.594729	-23.150612	838.3149110000001	1084.915384	-120.102108	808.078938	1049.824848	-63.989449	931.531641	1165.70584	-617.0135770000001	1048.798943	1197.392751	-485.401954	1068.568315	1134.348649	-514.876711	836.925738	350.85029	-277.776553	
71	1.716667	866.823701	1041.883455	-464.189162	882.12565	1034.627487	-203.896803	694.725517	1082.836148	-356.997656	697.7578099999999	1072.39997	-275.990699	865.203493	868.982576	-158.81508	968.503031	800.669629	-173.58465	952.742487	675.452192	-196.007414	788.181552	832.615006	-507.487328	838.267241	705.230367	-492.645194	766.154442	596.796129	-462.061933	978.62058	451.664947	-285.394701	915.43418	430.907264	-211.596684	757.3706079999999	363.207521	-382.082442	684.361265	298.794581	-423.601358	635.920221	204.551817	-347.834665	642.062364	359.256106	-275.703995	772.744588	165.966851	-284.044286	712.825834	205.129675	-193.473091	459.146541	128.511617	-323.821043	686.047986	67.83764499999999	-314.344002	607.51726	55.101378	-401.40384	934.307942	1495.042063	-502.819878	877.647972	1514.123157	-159.240771	943.915286	1450.415447	-288.808651	830.362132	1545.501758	-342.149761	816.310718	1429.194619	-81.226478	777.625152	1347.078024	-85.386967	707.350022	1378.027391	-63.716878	627.524182	1267.052156	-17.156443	595.441501	1267.990984	-94.88922100000001	924.046165	1401.496992	-574.813523	930.591171	1330.276309	-567.669446	835.848345	1318.568557	-588.346786	844.9562519999999	1162.588725	-653.251476	792.401308	1143.08857	-584.11598	708.881477	1193.37261	-24.343609	825.125256	1094.155923	-120.932105	794.451984	1059.877901	-64.42082600000001	936.639157	1172.977185	-614.762883	1051.378694	1208.855742	-481.443425	1073.104412	1146.303175	-510.483011	853.360194	351.090503	-278.291466	
72	1.725	868.020709	1044.465229	-464.821518	883.4199139999999	1039.783997	-204.515568	696.253422	1087.063725	-357.618298	699.163607	1077.571158	-276.015318	868.4687280000001	876.000543	-157.693354	972.66183	809.421158	-173.041046	959.387873	683.671907	-194.630786	782.911852	835.523831	-506.473438	828.1462749999999	706.771624	-491.147797	751.057195	600.9005969999999	-460.578209	993.767499	455.908922	-285.666329	932.111718	430.151351	-212.339532	736.261554	366.637913	-381.933144	662.444003	303.340283	-423.384014	613.617992	208.934858	-348.113635	664.467572	339.760914	-278.307809	809.204033	156.937689	-286.759175	746.235213	191.243915	-196.407854	437.032603	135.794356	-324.625331	661.7823550000001	67.647068	-314.512665	583.059167	56.212848	-401.18457	937.769588	1501.422346	-500.915246	874.382525	1519.08961	-159.330224	943.815351	1456.152833	-286.878094	830.918989	1549.918233	-342.751536	811.1456930000001	1437.666323	-81.523293	771.418895	1355.865145	-85.66735	701.891299	1388.492629	-64.074977	617.764314	1279.973114	-19.719976	589.322541	1281.932148	-98.528105	928.324638	1408.11568	-573.3898380000001	935.194406	1336.934426	-565.912987	840.922635	1324.457999	-587.285538	850.584553	1168.342645	-651.5580179999999	797.077128	1149.387764	-582.696335	697.645665	1205.326639	-25.935062	812.808384	1103.716422	-121.856089	781.5890419999999	1070.279645	-65.056543	941.572795	1180.372753	-612.463339	1053.408741	1220.20792	-477.381003	1076.856694	1158.01824	-505.818599	869.397054	350.720323	-278.941726	
